<?xml version="1.0" encoding="UTF-8"?>
<svg id="Layer_8" data-name="Layer 8" xmlns="http://www.w3.org/2000/svg" viewBox="0 0 551.66 93.63">
  <defs>
    <style>
      .cls-1 {
        fill: #231f20;
      }
    </style>
  </defs>
  <path class="cls-1" d="M42.98,83.52h-5.86L10.44,9.32h5.48l24.07,68.33h.12L64.05,9.32h5.36l-26.44,74.2Z"/>
  <path class="cls-1" d="M145.62,47.48c0,22.82-16.59,38.03-35.91,38.03s-35.79-15.21-35.79-38.03S90.37,9.32,109.7,9.32s35.91,15.34,35.91,38.16ZM109.7,80.52c16.08,0,30.67-12.72,30.67-33.04s-14.59-33.05-30.67-33.05-30.55,12.72-30.55,33.05,14.34,33.04,30.55,33.04Z"/>
  <path class="cls-1" d="M177.67,14.31c-9.98,0-16.84,5.24-16.84,13.1s6.73,11.72,14.47,15.46c10.1,4.74,22.44,9.6,22.44,22.57,0,11.22-9.48,20.07-22.69,20.07-6.86,0-14.72-2.49-20.2-7.11v-6.61c5.86,5.99,13.59,8.6,19.95,8.6,10.6,0,17.71-6.48,17.71-14.71s-6.61-12.1-14.59-15.96c-9.73-4.61-22.19-9.48-22.19-22.2,0-10.1,8.35-18.33,21.7-18.33,6.61,0,13.09,1.87,17.71,5.86v5.99c-4.99-4.86-11.35-6.73-17.46-6.73Z"/>
  <path class="cls-1" d="M232.3,14.31c-9.98,0-16.84,5.24-16.84,13.1s6.73,11.72,14.46,15.46c10.1,4.74,22.45,9.6,22.45,22.57,0,11.22-9.47,20.07-22.69,20.07-6.86,0-14.71-2.49-20.2-7.11v-6.61c5.86,5.99,13.59,8.6,19.95,8.6,10.6,0,17.71-6.48,17.71-14.71s-6.61-12.1-14.59-15.96c-9.73-4.61-22.19-9.48-22.19-22.2,0-10.1,8.35-18.33,21.7-18.33,6.61,0,13.09,1.87,17.71,5.86v5.99c-4.99-4.86-11.35-6.73-17.46-6.73Z"/>
  <path class="cls-1" d="M354.51,85.51h-5.36l-9.6-25.56h-32.42l-9.73,25.56h-5.36l28.43-74.2h5.86l28.18,74.2ZM337.67,55.09l-14.34-38.04-14.46,38.04h28.8Z"/>
  <path class="cls-1" d="M365.99,11.31h5.11v69.21h33.8v4.99h-38.91V11.31Z"/>
  <path class="cls-1" d="M477.23,85.51h-5.36l-9.6-25.56h-32.42l-9.73,25.56h-5.36l28.43-74.2h5.86l28.18,74.2ZM460.39,55.09l-14.34-38.04-14.46,38.04h28.8Z"/>
  <path class="cls-1" d="M543.7,85.51h-5.49l-44.39-66.59v66.59h-5.12V11.31h5.61l44.27,66.47V11.31h5.12v74.2Z"/>
</svg>