<?xml version="1.0" encoding="UTF-8"?>
<svg id="Layer_8" data-name="Layer 8" xmlns="http://www.w3.org/2000/svg" viewBox="0 0 544.37 65.68">
  <defs>
    <style>
      .cls-1 {
        fill: #231f20;
      }
    </style>
  </defs>
  <g>
    <path class="cls-1" d="M175.17,58.7h-4.24l-19.34-53.77h3.97l17.44,49.52h.09l17.35-49.52h3.89l-19.16,53.77Z"/>
    <path class="cls-1" d="M249.55,32.58c0,16.53-12.02,27.56-26.03,27.56s-25.94-11.03-25.94-27.56,11.93-27.65,25.94-27.65,26.03,11.11,26.03,27.65ZM223.52,56.53c11.66,0,22.23-9.22,22.23-23.95s-10.57-23.95-22.23-23.95-22.14,9.22-22.14,23.95,10.39,23.95,22.14,23.95Z"/>
    <path class="cls-1" d="M272.78,8.54c-7.23,0-12.2,3.8-12.2,9.49s4.88,8.49,10.48,11.2c7.32,3.43,16.26,6.96,16.26,16.36,0,8.13-6.87,14.55-16.45,14.55-4.97,0-10.67-1.81-14.64-5.15v-4.79c4.25,4.34,9.85,6.24,14.46,6.24,7.68,0,12.83-4.7,12.83-10.66s-4.79-8.77-10.57-11.57c-7.05-3.34-16.08-6.87-16.08-16.09,0-7.32,6.05-13.28,15.72-13.28,4.79,0,9.49,1.35,12.83,4.24v4.34c-3.61-3.52-8.22-4.88-12.65-4.88Z"/>
    <path class="cls-1" d="M312.36,8.54c-7.23,0-12.2,3.8-12.2,9.49s4.88,8.49,10.48,11.2c7.32,3.43,16.27,6.96,16.27,16.36,0,8.13-6.87,14.55-16.45,14.55-4.97,0-10.66-1.81-14.64-5.15v-4.79c4.25,4.34,9.85,6.24,14.46,6.24,7.68,0,12.83-4.7,12.83-10.66s-4.79-8.77-10.57-11.57c-7.05-3.34-16.08-6.87-16.08-16.09,0-7.32,6.05-13.28,15.72-13.28,4.79,0,9.49,1.35,12.83,4.24v4.34c-3.61-3.52-8.22-4.88-12.65-4.88Z"/>
    <path class="cls-1" d="M400.92,60.14h-3.89l-6.96-18.53h-23.49l-7.05,18.53h-3.89l20.61-53.77h4.24l20.42,53.77ZM388.72,38.1l-10.39-27.56-10.48,27.56h20.87Z"/>
    <path class="cls-1" d="M409.24,6.38h3.7v50.15h24.49v3.61h-28.19V6.38Z"/>
    <path class="cls-1" d="M489.85,60.14h-3.89l-6.96-18.53h-23.49l-7.05,18.53h-3.89l20.61-53.77h4.24l20.42,53.77ZM477.65,38.1l-10.39-27.56-10.48,27.56h20.87Z"/>
    <path class="cls-1" d="M538.03,60.14h-3.98l-32.17-48.25v48.25h-3.71V6.38h4.07l32.08,48.17V6.38h3.71v53.77Z"/>
  </g>
  <path class="cls-1" d="M149.12,58.77c-5.13-10.2-16.3-31.47-28.16-46.04-1.71-2.1-5.41-6.51-9.94-6.35-2.82.1-5.71,1.95-8.44,4.46-1.97-2.12-4.91-4.58-8.31-4.46-5.7.2-11.65,7.53-16.1,13.02-.03.04-.25.31-.53.66-1.45,1.85-2.14,2.95-2.45,3.39-.19.27-.38.54-.55.82l-13.63,19.04s.02.01.02.02l-2.18,3.04h0s-.04.05-.04.06c-2.06,2.63-4.06,5.19-6.04,7.32-2.62-3.52-5.81-9.01-10.01-17.28-5.81-11.44-9.98-21.07-12.72-27.84-1.07-1.91-3.98-2.72-6.12-1.99-1.7.58-2.75,2.08-2.4,3.64,5.13,10.2,16.3,31.47,28.16,46.04.06.07.13.16.19.24-2.05,1.71-4.1,2.79-6.17,2.8-4.11.03-8.45-4.72-17.69-22.89-5.81-11.44-9.98-21.07-12.72-27.84-1.07-1.91-3.98-2.72-6.12-1.99-1.7.58-2.75,2.08-2.4,3.64,5.13,10.2,16.3,31.47,28.16,46.04,1.71,2.1,5.41,6.51,9.94,6.35,2.82-.1,5.71-1.95,8.44-4.46,1.97,2.12,4.91,4.58,8.31,4.46,5.7-.2,11.65-7.53,16.1-13.02.03-.04.25-.31.53-.66,1.45-1.85,2.14-2.95,2.45-3.39.19-.27.38-.54.55-.82l13.63-19.04s-.02-.01-.02-.02l2.18-3.04h0s.04-.05.04-.06c2.06-2.63,4.06-5.19,6.04-7.32,2.62,3.52,5.81,9.01,10.01,17.28,5.81,11.44,9.98,21.07,12.72,27.84,1.07,1.91,3.98,2.72,6.12,1.99,1.7-.58,2.75-2.08,2.4-3.64-5.13-10.2-16.3-31.47-28.16-46.04-.06-.07-.13-.16-.19-.24,2.05-1.71,4.1-2.79,6.17-2.8,4.11-.03,8.45,4.72,17.69,22.89,5.81,11.44,9.98,21.07,12.72,27.84,1.07,1.91,3.98,2.72,6.12,1.99,1.7-.58,2.75-2.08,2.4-3.64ZM94.93,19.4s-.25.31-.53.66c-1.45,1.85-2.14,2.95-2.45,3.39-.19.27-.38.54-.55.82l-13.63,19.04s.02.01.02.02l-2.17,3.04h0s-.04.05-.04.06c-5.22,6.68-10.08,12.9-15.11,12.94-1.91.01-3.88-1.01-6.37-3.95,1.75-1.9,3.4-3.93,4.88-5.75.03-.04.25-.31.53-.66,1.45-1.85,2.14-2.95,2.45-3.39.19-.27.38-.54.55-.82l13.63-19.04s-.02-.01-.02-.02l2.18-3.04h0s.04-.05.04-.06c5.22-6.68,10.08-12.9,15.11-12.94,1.91-.01,3.88,1.01,6.37,3.95-1.75,1.9-3.4,3.93-4.88,5.75Z"/>
</svg>