<?xml version="1.0" encoding="UTF-8"?>
<svg id="Layer_8" data-name="Layer 8" xmlns="http://www.w3.org/2000/svg" viewBox="0 0 528.49 185.54">
  <defs>
    <style>
      .cls-1 {
        fill: #231f20;
      }
    </style>
  </defs>
  <g>
    <path class="cls-1" d="M35.62,177.56h-5.69L4.03,105.53h5.32l23.37,66.34h.12l23.24-66.34h5.2l-25.67,72.03Z"/>
    <path class="cls-1" d="M135.26,142.58c0,22.15-16.1,36.92-34.86,36.92s-34.74-14.77-34.74-36.92,15.98-37.04,34.74-37.04,34.86,14.89,34.86,37.04ZM100.39,174.65c15.61,0,29.78-12.35,29.78-32.08s-14.16-32.08-29.78-32.08-29.66,12.35-29.66,32.08,13.92,32.08,29.66,32.08Z"/>
    <path class="cls-1" d="M166.38,110.38c-9.68,0-16.34,5.09-16.34,12.71s6.54,11.38,14.04,15.01c9.8,4.6,21.79,9.32,21.79,21.91,0,10.9-9.2,19.49-22.03,19.49-6.66,0-14.29-2.42-19.61-6.9v-6.42c5.69,5.81,13.2,8.35,19.37,8.35,10.29,0,17.19-6.29,17.19-14.28s-6.42-11.75-14.16-15.49c-9.44-4.48-21.54-9.2-21.54-21.55,0-9.8,8.11-17.79,21.06-17.79,6.42,0,12.71,1.81,17.19,5.69v5.81c-4.84-4.72-11.02-6.54-16.95-6.54Z"/>
    <path class="cls-1" d="M219.4,110.38c-9.68,0-16.34,5.09-16.34,12.71s6.54,11.38,14.04,15.01c9.81,4.6,21.79,9.32,21.79,21.91,0,10.9-9.2,19.49-22.03,19.49-6.66,0-14.28-2.42-19.61-6.9v-6.42c5.69,5.81,13.2,8.35,19.37,8.35,10.29,0,17.19-6.29,17.19-14.28s-6.42-11.75-14.16-15.49c-9.44-4.48-21.54-9.2-21.54-21.55,0-9.8,8.11-17.79,21.06-17.79,6.42,0,12.71,1.81,17.19,5.69v5.81c-4.84-4.72-11.02-6.54-16.95-6.54Z"/>
    <path class="cls-1" d="M338.04,179.5h-5.2l-9.32-24.82h-31.47l-9.45,24.82h-5.2l27.6-72.03h5.69l27.36,72.03ZM321.7,149.96l-13.92-36.92-14.04,36.92h27.96Z"/>
    <path class="cls-1" d="M349.19,107.47h4.96v67.18h32.81v4.84h-37.77v-72.03Z"/>
    <path class="cls-1" d="M457.17,179.5h-5.2l-9.32-24.82h-31.47l-9.45,24.82h-5.2l27.6-72.03h5.69l27.36,72.03ZM440.83,149.96l-13.92-36.92-14.04,36.92h27.96Z"/>
    <path class="cls-1" d="M521.71,179.5h-5.33l-43.09-64.64v64.64h-4.97v-72.03h5.45l42.97,64.52v-64.52h4.97v72.03Z"/>
  </g>
  <path class="cls-1" d="M359.55,72.5c-6.87-13.66-21.83-42.16-37.72-61.68-2.29-2.81-7.24-8.73-13.31-8.51-3.78.13-7.65,2.62-11.31,5.98-2.64-2.84-6.57-6.14-11.13-5.98-7.64.27-15.6,10.09-21.57,17.44-.04.05-.33.41-.71.89-1.95,2.47-2.87,3.95-3.28,4.54-.25.36-.5.73-.74,1.1l-18.26,25.51s.02.02.03.02l-2.91,4.07h0s-.05.06-.06.08c-2.75,3.52-5.43,6.95-8.08,9.81-3.51-4.72-7.78-12.07-13.41-23.15-7.79-15.32-13.36-28.23-17.05-37.3-1.44-2.56-5.34-3.64-8.2-2.67-2.28.78-3.68,2.78-3.22,4.88,6.87,13.66,21.83,42.16,37.72,61.67.08.1.17.21.26.32-2.75,2.3-5.49,3.74-8.26,3.76-5.5.04-11.32-6.33-23.69-30.66-7.79-15.32-13.36-28.23-17.05-37.3-1.44-2.56-5.34-3.64-8.2-2.67-2.28.78-3.68,2.78-3.22,4.88,6.87,13.66,21.83,42.16,37.72,61.67,2.29,2.81,7.24,8.73,13.31,8.51,3.78-.13,7.65-2.62,11.31-5.98,2.64,2.84,6.57,6.14,11.13,5.98,7.64-.27,15.6-10.09,21.57-17.44.04-.05.33-.41.71-.89,1.95-2.47,2.87-3.95,3.28-4.54.25-.36.5-.73.74-1.1l18.26-25.51s-.02-.02-.03-.02l2.91-4.07h0s.05-.06.06-.08c2.75-3.52,5.43-6.95,8.08-9.81,3.51,4.72,7.78,12.07,13.41,23.15,7.79,15.32,13.36,28.23,17.05,37.3,1.44,2.56,5.34,3.64,8.2,2.67,2.28-.78,3.68-2.78,3.22-4.88-6.87-13.66-21.83-42.16-37.72-61.67-.08-.1-.17-.21-.26-.32,2.75-2.3,5.49-3.74,8.26-3.76,5.5-.04,11.32,6.33,23.69,30.66,7.79,15.32,13.36,28.23,17.05,37.3,1.44,2.56,5.34,3.64,8.2,2.67,2.28-.78,3.68-2.78,3.22-4.88ZM286.95,19.75c-.04.05-.33.41-.71.89-1.95,2.47-2.87,3.95-3.28,4.54-.25.36-.5.73-.74,1.1l-18.26,25.51s.02.02.03.02l-2.91,4.07h0s-.05.06-.06.08c-6.99,8.94-13.51,17.28-20.24,17.33-2.56.02-5.2-1.36-8.53-5.3,2.34-2.55,4.55-5.26,6.53-7.71.04-.05.33-.41.71-.89,1.95-2.47,2.87-3.95,3.28-4.54.25-.36.5-.73.74-1.1l18.26-25.51s-.02-.02-.03-.02l2.91-4.07h0s.05-.06.06-.08c6.99-8.94,13.51-17.28,20.24-17.33,2.56-.02,5.2,1.36,8.53,5.3-2.34,2.55-4.55,5.26-6.53,7.7Z"/>
</svg>