<?xml version="1.0" encoding="UTF-8"?>
<svg id="Layer_8" data-name="Layer 8" xmlns="http://www.w3.org/2000/svg" viewBox="0 0 480.66 197.21">
  <defs>
    <style>
      .cls-1 {
        fill: #231f20;
      }
    </style>
  </defs>
  <path class="cls-1" d="M475.42,173.56c-16.63-33.06-52.82-101.99-91.25-149.21-5.53-6.8-17.52-21.11-32.2-20.59-9.15.33-18.5,6.33-27.36,14.46-6.39-6.88-15.9-14.85-26.93-14.46-18.47.66-37.75,24.41-52.18,42.19-.1.12-.8.99-1.72,2.15-4.72,5.98-6.94,9.56-7.94,10.99-.61.86-1.22,1.76-1.78,2.66l-44.17,61.72s.05.04.08.05l-7.05,9.85h0c-.06.08-.11.15-.14.19-6.66,8.53-13.15,16.8-19.56,23.74-8.48-11.42-18.82-29.19-32.44-56-18.84-37.06-32.33-68.29-41.24-90.23-3.47-6.2-12.91-8.81-19.83-6.46-5.52,1.88-8.9,6.73-7.78,11.81,16.63,33.06,52.82,101.99,91.25,149.21.2.24.42.51.63.77-6.65,5.56-13.27,9.04-19.99,9.09-13.3.09-27.39-15.31-57.32-74.19C57.65,64.23,44.16,33,35.25,11.06c-3.47-6.2-12.91-8.81-19.84-6.46-5.52,1.88-8.9,6.73-7.78,11.81,16.63,33.06,52.82,101.99,91.25,149.21,5.53,6.8,17.52,21.11,32.2,20.59,9.15-.33,18.5-6.33,27.36-14.46,6.4,6.88,15.9,14.85,26.93,14.46,18.47-.66,37.75-24.41,52.18-42.19.1-.12.8-.99,1.71-2.15,4.71-5.98,6.94-9.56,7.94-10.99.61-.86,1.22-1.76,1.78-2.66l44.17-61.72s-.05-.04-.08-.05l7.05-9.85h0c.06-.08.12-.15.14-.19,6.66-8.53,13.15-16.8,19.56-23.74,8.48,11.42,18.82,29.19,32.44,56,18.84,37.06,32.33,68.29,41.24,90.23,3.47,6.2,12.91,8.81,19.84,6.46,5.52-1.88,8.9-6.73,7.78-11.81-16.63-33.06-52.82-101.99-91.25-149.21-.2-.24-.42-.51-.63-.77,6.65-5.56,13.27-9.04,19.99-9.09,13.31-.09,27.39,15.31,57.32,74.19,18.84,37.06,32.33,68.29,41.24,90.23,3.47,6.2,12.91,8.81,19.83,6.46,5.52-1.88,8.9-6.73,7.78-11.81ZM299.79,45.95c-.1.12-.8.99-1.72,2.15-4.71,5.98-6.94,9.56-7.94,10.99-.61.86-1.22,1.76-1.78,2.66l-44.17,61.72s.05.04.08.05l-7.05,9.85h0c-.06.08-.11.15-.14.19-16.91,21.64-32.68,41.81-48.97,41.93-6.2.04-12.58-3.29-20.64-12.81,5.66-6.16,11.01-12.73,15.8-18.64.1-.12.8-.99,1.72-2.15,4.72-5.98,6.94-9.56,7.94-10.99.61-.86,1.22-1.76,1.78-2.66l44.18-61.72s-.05-.04-.08-.05l7.05-9.85h0c.06-.08.11-.15.14-.19,16.91-21.64,32.68-41.81,48.97-41.93,6.2-.04,12.57,3.29,20.64,12.81-5.66,6.16-11,12.73-15.8,18.64Z"/>
</svg>